Patient4_TMGait_0pt2_03_right_04_GRF.mot
version=1
nRows=45
nColumns=19
inDegrees=no
endheader
time	F1x	F1y	F1z	M1x	M1y	M1z	F2x	F2y	F2z	M2x	M2y	M2z	EC1x	EC1y	EC1z	EC2x	EC2y	EC2z
8.31	-3.7466	756.2803	45.022	-246.5834	-47.0836	804.6114	1.7415	33.1109	-2.2059	11.9594	1.3303	32.9707	-0.0592	0.0182	-0.0073	-0.0462	0.0165	0.9585
8.3324	-6.9422	777.317	47.3913	-252.8388	-50.2933	826.5411	0.15342	25.7627	-1.6606	9.4004	1.5025	25.6742	-0.0592	0.0182	-0.0073	-0.0462	0.0165	0.9585
8.3547	-10.2833	801.1919	50.0373	-259.8806	-53.7408	851.3272	-0.99409	18.6484	-1.1388	6.8827	1.5133	18.6283	-0.0592	0.0182	-0.0073	-0.0462	0.0165	0.9585
8.3771	-13.3744	825.8943	52.6985	-267.0946	-57.0232	876.6857	-1.6119	12.4624	-0.70008	4.6622	1.3815	12.5162	-0.0592	0.0182	-0.0073	-0.0462	0.0165	0.9585
8.3994	-15.8064	848.8694	55.0894	-273.7068	-59.7144	899.7322	-1.8236	7.613	-0.36906	2.8997	1.1788	7.7349	-0.0592	0.0182	-0.0073	-0.0462	0.0165	0.9585
8.4218	-17.2257	867.2602	56.9463	-278.8561	-61.4376	917.3126	-1.7884	4.1505	-0.14564	1.6265	0.96968	4.3287	-0.0592	0.0182	-0.0073	-0.0462	0.0165	0.9585
8.4441	-17.417	878.3086	58.0542	-281.7201	-61.9242	926.4764	-1.6283	1.8812	-0.016034	0.78082	0.79292	2.0994	-0.0592	0.0182	-0.0073	-0.0462	0.0165	0.9585
8.4665	-16.3357	879.9392	58.24	-281.6965	-61.0127	925.0922	-1.4285	0.49385	0.041234	0.25325	0.6631	0.72882	-0.0592	0.0182	-0.0073	-0.0462	0.0165	0.9585
8.4889	-14.0646	871.3615	57.3945	-278.5856	-58.6544	912.435	-1.2395	-0.35852	0.050144	-0.082804	0.57716	-0.13492	-0.0592	0.0182	-0.0073	-0.0462	0.0165	0.9585
8.5112	-10.7536	853.4104	55.5297	-272.6868	-54.9493	889.49	-1.0816	-1.0026	0.032907	-0.34891	0.52319	-0.82723	-0.0592	0.0182	-0.0073	-0.0462	0.0165	0.9585
8.5336	-6.5682	828.5105	52.8136	-264.7807	-50.1595	858.8838	-0.95521	-1.7164	0.011214	-0.64878	0.48218	-1.6361	-0.0592	0.0182	-0.0073	-0.0462	0.0165	0.9585
8.5559	-1.6723	800.1902	49.5658	-255.9752	-44.6961	824.3688	-0.84753	-2.7025	0.0049338	-1.0574	0.43033	-2.7733	-0.0592	0.0182	-0.0073	-0.0462	0.0165	0.9585
8.5783	3.7718	772.3287	46.2151	-247.4694	-39.0688	790.0453	-0.73244	-4.0589	0.032258	-1.6103	0.33737	-4.3379	-0.0592	0.0182	-0.0073	-0.0462	0.0165	0.9585
8.6006	9.5881	748.3901	43.2155	-240.3155	-33.7994	759.5765	-0.57544	-5.7391	0.11011	-2.2884	0.17037	-6.2684	-0.0592	0.0182	-0.0073	-0.0462	0.0165	0.9585
8.623	15.5624	730.8226	40.9435	-235.236	-29.3279	735.584	-0.34048	-7.5026	0.25125	-2.9955	-0.099146	-8.2878	-0.0592	0.0182	-0.0073	-0.0462	0.0165	0.9585
8.6454	21.4524	720.6986	39.6188	-232.5232	-25.9325	719.2951	0.0031056	-8.8603	0.46161	-3.5351	-0.48464	-9.8391	-0.0592	0.0182	-0.0073	-0.0462	0.0165	0.9585
8.6677	27.0205	717.6163	39.2899	-232.0119	-23.7143	710.4398	0.47358	-9.0085	0.73335	-3.5838	-0.97809	-10.0166	-0.0592	0.0182	-0.0073	-0.0462	0.0165	0.9585
8.6901	32.0643	719.8385	39.8578	-233.1231	-22.6167	707.38	1.0643	-6.7837	1.0373	-2.6734	-1.5367	-7.5131	-0.0592	0.0182	-0.0073	-0.0462	0.0165	0.9585
8.7124	36.4304	724.5834	41.1201	-234.9511	-22.4687	707.4061	1.7262	-0.66394	1.3123	-0.19213	-2.0635	-0.61421	-0.0592	0.0182	-0.0073	-0.0462	0.0165	0.9585
8.7348	39.986	728.3962	42.8049	-236.3771	-23.0318	707.137	2.347	11.1374	1.4529	4.5782	-2.387	12.6953	-0.0592	0.0182	-0.0073	-0.0462	0.0165	0.9585
8.7571	42.5934	727.6676	44.5745	-236.2312	-24.0155	703.0658	2.7302	30.4387	1.2993	12.3666	-2.2451	34.4621	-0.0592	0.0182	-0.0073	-0.0462	0.0165	0.9585
8.7795	44.0827	719.1696	46.0554	-233.4645	-25.1182	692.1063	2.5718	58.6404	0.63188	23.7312	-1.2704	66.259	-0.0592	0.0182	-0.0073	-0.0462	0.0165	0.9585
8.8019	44.2564	700.4697	46.8868	-227.2857	-26.0679	671.9888	1.4418	96.0141	-0.81532	38.774	1.0017	108.3882	-0.0592	0.0182	-0.0073	-0.0462	0.0165	0.9585
8.8242	42.9743	670.3726	46.7739	-217.3083	-26.641	641.6512	-1.1176	140.9587	-3.2828	56.8369	5.0079	159.0495	-0.0592	0.0182	-0.0073	-0.0462	0.0165	0.9585
8.8466	40.2684	629.4721	45.5691	-203.7338	-26.6987	601.7098	-5.0888	189.9739	-6.8596	76.4996	10.806	214.2914	-0.0592	0.0182	-0.0073	-0.0462	0.0165	0.9585
8.8689	36.4198	580.4329	43.3233	-187.4457	-26.2053	554.685	-9.9377	239.5927	-11.1726	96.3797	17.7331	270.1773	-0.0592	0.0182	-0.0073	-0.0462	0.0165	0.9585
8.8913	31.8934	527.4104	40.2549	-169.8198	-25.2155	504.4464	-15.095	288.1462	-15.6163	115.8308	24.8864	324.8035	-0.0592	0.0182	-0.0073	-0.0462	0.0165	0.9585
8.9136	27.1406	474.6821	36.6593	-152.2779	-23.8461	454.933	-20.0888	334.8945	-19.6603	134.5739	31.5131	377.3441	-0.0592	0.0182	-0.0073	-0.0462	0.0165	0.9585
8.936	22.479	425.4834	32.8303	-135.9044	-22.2422	409.064	-24.5051	378.8726	-22.9837	152.22	37.1258	426.7284	-0.0592	0.0182	-0.0073	-0.0462	0.0165	0.9585
8.9584	18.1135	381.6403	29.0325	-121.3248	-20.5553	368.4013	-28.0156	418.6812	-25.4879	168.1854	41.5118	471.3903	-0.0592	0.0182	-0.0073	-0.0462	0.0165	0.9585
8.9807	14.1693	343.7729	25.4757	-108.7689	-18.9145	333.3692	-30.4609	452.9086	-27.2455	181.8722	44.7034	509.7443	-0.0592	0.0182	-0.0073	-0.0462	0.0165	0.9585
9.0031	10.7117	311.6623	22.2976	-98.1852	-17.4066	303.6258	-31.8536	480.8257	-28.3761	192.9632	46.8452	540.9492	-0.0592	0.0182	-0.0073	-0.0462	0.0165	0.9585
9.0254	7.7788	284.5463	19.5744	-89.3301	-16.0791	278.3596	-32.3067	502.7702	-28.9943	201.5845	48.1154	565.3337	-0.0592	0.0182	-0.0073	-0.0462	0.0165	0.9585
9.0478	5.4126	261.323	17.3115	-81.8366	-14.9203	256.4944	-31.9894	519.9219	-29.2333	208.2138	48.7282	584.163	-0.0592	0.0182	-0.0073	-0.0462	0.0165	0.9585
9.0701	3.6902	240.7968	15.4225	-75.3001	-13.8317	236.9084	-31.1126	533.8048	-29.2482	213.4779	48.927	599.0945	-0.0592	0.0182	-0.0073	-0.0462	0.0165	0.9585
9.0925	2.7351	221.8548	13.7657	-69.3378	-12.6573	218.5843	-29.8947	545.9089	-29.1729	217.9973	48.9239	611.7609	-0.0592	0.0182	-0.0073	-0.0462	0.0165	0.9585
9.1149	2.7052	203.5134	12.208	-63.6102	-11.2395	200.6348	-28.5092	557.457	-29.0837	222.2892	48.8394	623.4977	-0.0592	0.0182	-0.0073	-0.0462	0.0165	0.9585
9.1372	3.751	184.9184	10.6548	-57.8241	-9.4581	182.2909	-27.044	569.2949	-29.0111	226.7167	48.6964	635.2122	-0.0592	0.0182	-0.0073	-0.0462	0.0165	0.9585
9.1596	5.935	165.3702	9.0508	-51.7407	-7.2537	162.9308	-25.4946	581.9394	-28.9623	231.5033	48.4487	647.4355	-0.0592	0.0182	-0.0073	-0.0462	0.0165	0.9585
9.1819	9.1317	144.4456	7.3773	-45.2175	-4.6563	142.1933	-23.8026	595.6893	-28.9617	236.7743	48.0533	660.4582	-0.0592	0.0182	-0.0073	-0.0462	0.0165	0.9585
9.2043	12.9235	122.2363	5.6572	-38.2823	-1.8196	120.2059	-21.9135	610.7105	-29.0701	242.5925	47.5281	674.4534	-0.0592	0.0182	-0.0073	-0.0462	0.0165	0.9585
9.2266	16.5727	99.4951	3.9643	-31.1739	0.9591	97.7337	-19.8316	627.1101	-29.3772	248.9928	46.9697	689.5918	-0.0592	0.0182	-0.0073	-0.0462	0.0165	0.9585
9.249	19.1938	77.4389	2.4098	-24.2765	3.3052	75.9939	-17.6355	645.0216	-29.9852	256.016	46.5439	706.1345	-0.0592	0.0182	-0.0073	-0.0462	0.0165	0.9585
9.2714	20.1021	57.2797	1.1013	-17.9699	4.904	56.1786	-15.4608	664.6046	-30.9756	263.7111	46.4341	724.4184	-0.0592	0.0182	-0.0073	-0.0462	0.0165	0.9585
9.2937	19.0528	39.8686	0.10204	-12.5196	5.6079	39.1035	-13.4914	685.8939	-32.381	272.072	46.7977	744.6778	-0.0592	0.0182	-0.0073	-0.0462	0.0165	0.9585
